# This file uses centimeters as units for non-parametric coordinates.

mtllib MDL_CHAR_Object7.mtl
g default
v -0.445984 -0.590251 0.335743
v 0.454150 -0.590252 0.153923
v -0.089617 -0.590252 -0.209079
v 0.097784 -0.590251 0.698744
v -0.433285 -0.184963 -0.015575
v 0.000095 0.116168 0.252369
v 0.268598 -0.184962 -0.161343
v 0.431736 -0.184963 0.512686
v -0.268247 -0.184962 0.655559
v 0.004083 -0.957727 0.244833
vt 0.375000 0.500000
vt 0.500000 0.500000
vt 0.625000 0.500000
vt 0.500000 1.000000
vt 0.000000 0.000000
vt 1.000000 0.000000
vt 0.500000 1.000000
vt 0.000000 0.000000
vt 1.000000 0.000000
vt 0.500000 1.000000
vt 0.500000 1.000000
vt 0.375000 0.500000
vt 0.625000 0.500000
vt 1.000000 0.000000
vt 0.500000 1.000000
vt 0.500000 1.000000
vt 0.000000 0.000000
vt 0.000000 0.000000
vt 1.000000 0.000000
vt 0.500000 1.000000
vt 0.000000 0.000000
vt 1.000000 0.000000
vt 0.500000 1.000000
vt 0.000000 0.000000
vt 1.000000 0.000000
vt 0.500000 1.000000
vt 0.000000 0.000000
vt 1.000000 0.000000
vt 0.500000 1.000000
vn -0.132519 0.758479 -0.638082
vn -0.132519 0.758479 -0.638082
vn -0.132519 0.758479 -0.638082
vn 0.625345 0.765530 -0.151354
vn 0.625345 0.765530 -0.151354
vn 0.625345 0.765530 -0.151354
vn -0.626252 0.764260 0.154001
vn -0.626252 0.764260 0.154001
vn -0.626252 0.764259 0.154001
vn 0.132294 0.749934 0.648149
vn 0.132294 0.749934 0.648149
vn 0.132294 0.749934 0.648149
vn -0.469994 0.022754 -0.882376
vn -0.763654 -0.409059 -0.499503
vn -0.607857 -0.142473 -0.781160
vn 0.867162 0.009679 -0.497933
vn 0.516786 -0.365582 -0.774133
vn 0.775592 -0.126048 -0.618522
vn -0.864859 -0.016649 0.501739
vn -0.513209 -0.381581 0.768774
vn -0.771363 -0.149798 0.618514
vn 0.471344 0.016432 0.881797
vn 0.766490 -0.401414 0.501359
vn 0.605581 -0.139305 0.783496
vn -0.944806 0.230999 0.232337
vn 0.192327 0.274101 0.942273
vn 0.940205 0.253437 -0.227561
vn -0.195031 0.282987 -0.939085
vn -0.625285 -0.664636 -0.408996
vn -0.625285 -0.664636 -0.408996
vn -0.625285 -0.664636 -0.408996
vn 0.415621 -0.663055 -0.622589
vn 0.415621 -0.663055 -0.622589
vn 0.415621 -0.663055 -0.622589
vn -0.415621 -0.663055 0.622590
vn -0.415621 -0.663055 0.622590
vn -0.415621 -0.663055 0.622590
vn 0.625284 -0.664636 0.408997
vn 0.625284 -0.664636 0.408997
vn 0.625284 -0.664636 0.408997
s off
g pPyramid1
usemtl initialShadingGroup
f 5/12/1 6/2/2 7/11/3
f 6/2/4 8/13/5 7/11/6
f 6/5/7 5/14/8 9/15/9
f 8/17/10 6/9/11 9/16/12
s 1
f 3/4/13 1/1/14 5/12/15
s 2
f 2/3/16 3/4/17 7/11/18
s 3
f 1/6/19 4/7/20 9/15/21
s 4
f 4/10/22 2/8/23 8/17/24
s 3
f 1/6/19 9/15/21 5/14/25
s 4
f 4/10/22 8/17/24 9/16/26
s 2
f 2/3/16 7/11/18 8/13/27
s 1
f 3/4/13 5/12/15 7/11/28
s off
f 1/18/29 3/19/30 10/20/31
f 3/21/32 2/22/33 10/23/34
f 4/24/35 1/25/36 10/26/37
f 2/27/38 4/28/39 10/29/40
