# This file uses centimeters as units for non-parametric coordinates.

mtllib MDL_CHAR_Object14.mtl
g default
v -0.003555 -0.000000 0.004872
v -0.219947 -0.000000 -0.032153
v -0.091464 -0.000000 0.146987
v 0.196958 -0.000000 0.364893
v 0.306529 -0.000000 0.166008
v 0.024515 0.113452 -0.040507
v -0.393191 0.113453 -0.134528
v -0.122500 0.113453 0.197160
v 0.279618 0.113453 0.517098
v 0.469448 0.113452 0.147866
v 0.116695 -0.000000 -0.189525
v -1.069263 -0.000000 -0.534037
v -0.207758 -0.000000 0.334988
v 0.429366 -0.000000 0.845749
v 0.812654 -0.000000 0.085792
v 0.024515 -0.098088 -0.040507
v -0.393191 -0.098089 -0.134528
v -0.122500 -0.098089 0.197160
v 0.279618 -0.098089 0.517098
v 0.469448 -0.098089 0.147866
vt 0.000000 1.000000
vt 0.200000 1.000000
vt 0.400000 1.000000
vt 0.600000 1.000000
vt 0.800000 1.000000
vt 1.000000 1.000000
vt 0.000000 0.750000
vt 0.200000 0.750000
vt 0.400000 0.750000
vt 0.600000 0.750000
vt 0.800000 0.750000
vt 1.000000 0.750000
vt 0.000000 0.500000
vt 0.200000 0.500000
vt 0.400000 0.500000
vt 0.600000 0.500000
vt 0.800000 0.500000
vt 1.000000 0.500000
vt 0.000000 0.250000
vt 0.200000 0.250000
vt 0.400000 0.250000
vt 0.600000 0.250000
vt 0.800000 0.250000
vt 1.000000 0.250000
vt 0.000000 0.000000
vt 0.200000 0.000000
vt 0.400000 0.000000
vt 0.600000 0.000000
vt 0.800000 0.000000
vt 1.000000 0.000000
vn -0.180426 0.453058 0.873032
vn -0.180426 0.453058 0.873032
vn -0.180426 0.453058 0.873032
vn -0.180426 0.453058 0.873032
vn 0.685228 0.493714 -0.535453
vn 0.685228 0.493714 -0.535453
vn 0.685228 0.493714 -0.535453
vn 0.685228 0.493714 -0.535453
vn 0.535256 0.491155 -0.687218
vn 0.535256 0.491155 -0.687218
vn 0.535256 0.491155 -0.687218
vn 0.535256 0.491155 -0.687218
vn -0.557274 0.776655 -0.293688
vn -0.557274 0.776655 -0.293688
vn -0.557274 0.776655 -0.293688
vn -0.557274 0.776655 -0.293688
vn -0.359007 0.519287 0.775535
vn -0.359007 0.519287 0.775535
vn -0.359007 0.519287 0.775535
vn -0.359007 0.519287 0.775535
vn 0.136529 0.855622 -0.499270
vn 0.136529 0.855622 -0.499270
vn 0.136529 0.855622 -0.499270
vn 0.136529 0.855622 -0.499270
vn -0.377099 0.855196 0.355580
vn -0.377099 0.855196 0.355580
vn -0.377099 0.855196 0.355580
vn -0.377099 0.855196 0.355580
vn -0.358085 0.819199 0.447981
vn -0.358085 0.819199 0.447981
vn -0.358085 0.819199 0.447981
vn -0.358085 0.819199 0.447981
vn 0.334753 0.926862 0.169903
vn 0.334753 0.926862 0.169903
vn 0.334753 0.926862 0.169903
vn 0.334753 0.926862 0.169903
vn 0.200969 0.845639 -0.494476
vn 0.200969 0.845639 -0.494476
vn 0.200969 0.845639 -0.494476
vn 0.200969 0.845639 -0.494476
vn 0.122248 -0.886119 -0.447044
vn 0.122248 -0.886119 -0.447044
vn 0.122248 -0.886119 -0.447044
vn 0.122248 -0.886119 -0.447044
vn -0.337686 -0.885765 0.318416
vn -0.337686 -0.885765 0.318416
vn -0.337686 -0.885765 0.318416
vn -0.337686 -0.885765 0.318416
vn -0.323309 -0.855494 0.404475
vn -0.323309 -0.855494 0.404475
vn -0.323309 -0.855494 0.404475
vn -0.323309 -0.855495 0.404475
vn 0.294711 -0.943807 0.149580
vn 0.294711 -0.943807 0.149580
vn 0.294711 -0.943807 0.149580
vn 0.294711 -0.943807 0.149580
vn 0.180362 -0.877801 -0.443774
vn 0.180362 -0.877801 -0.443774
vn 0.180362 -0.877801 -0.443774
vn 0.180362 -0.877801 -0.443774
vn -0.174478 -0.506748 0.844254
vn -0.174478 -0.506748 0.844254
vn -0.174478 -0.506748 0.844254
vn -0.174478 -0.506748 0.844254
vn 0.658648 -0.548894 -0.514683
vn 0.658648 -0.548894 -0.514683
vn 0.658648 -0.548893 -0.514683
vn 0.658648 -0.548894 -0.514683
vn 0.514696 -0.546264 -0.660821
vn 0.514696 -0.546264 -0.660821
vn 0.514696 -0.546264 -0.660821
vn 0.514696 -0.546264 -0.660821
vn -0.507925 -0.818755 -0.267680
vn -0.507925 -0.818755 -0.267680
vn -0.507925 -0.818755 -0.267680
vn -0.507925 -0.818755 -0.267680
vn -0.343695 -0.575005 0.742457
vn -0.343695 -0.575006 0.742457
vn -0.343695 -0.575006 0.742457
vn -0.343695 -0.575006 0.742457
s off
g pTorus1
usemtl initialShadingGroup
f 2/2/1 1/1/2 6/7/3 7/8/4
f 3/3/5 2/2/6 7/8/7 8/9/8
f 4/4/9 3/3/10 8/9/11 9/10/12
f 5/5/13 4/4/14 9/10/15 10/11/16
f 1/6/17 5/5/18 10/11/19 6/12/20
f 7/8/21 6/7/22 11/13/23 12/14/24
f 8/9/25 7/8/26 12/14/27 13/15/28
f 9/10/29 8/9/30 13/15/31 14/16/32
f 10/11/33 9/10/34 14/16/35 15/17/36
f 6/12/37 10/11/38 15/17/39 11/18/40
f 12/14/41 11/13/42 16/19/43 17/20/44
f 13/15/45 12/14/46 17/20/47 18/21/48
f 14/16/49 13/15/50 18/21/51 19/22/52
f 15/17/53 14/16/54 19/22/55 20/23/56
f 11/18/57 15/17/58 20/23/59 16/24/60
f 17/20/61 16/19/62 1/25/63 2/26/64
f 18/21/65 17/20/66 2/26/67 3/27/68
f 19/22/69 18/21/70 3/27/71 4/28/72
f 20/23/73 19/22/74 4/28/75 5/29/76
f 16/24/77 20/23/78 5/29/79 1/30/80
