# This file uses centimeters as units for non-parametric coordinates.

mtllib MDL_CHAR_Object2.mtl
g default
v 0.000000 -0.353553 -0.353553
v -0.353553 -0.353553 -0.000000
v -0.000000 -0.353553 0.353553
v 0.353553 -0.353553 0.000000
v 0.000000 -0.257999 -0.114630
v -0.114630 -0.257999 -0.000000
v -0.000000 -0.257999 0.114630
v 0.114630 -0.257999 -0.000000
v 0.000000 -0.117851 -0.471404
v -0.471404 -0.117851 -0.000000
v -0.000000 -0.117851 0.471404
v 0.471404 -0.117851 0.000000
v 0.000000 0.353553 0.000000
v 0.000000 -0.765328 -0.000000
vt 0.500000 0.125000
vt 0.375000 0.250000
vt 0.500000 0.375000
vt 0.625000 0.250000
vt 0.437500 0.375000
vt 0.312500 0.375000
vt 0.687500 0.375000
vt 0.500000 0.500000
vt 0.500000 0.666667
vt 0.416667 0.666667
vt 0.500000 0.666667
vt 0.583333 0.666667
vt 0.500000 1.000000
vt 0.000000 0.000000
vt 1.000000 0.000000
vt 0.500000 1.000000
vt 0.000000 0.000000
vt 1.000000 0.000000
vt 0.500000 1.000000
vt 0.000000 0.000000
vt 1.000000 0.000000
vt 0.500000 1.000000
vt 0.000000 0.000000
vt 1.000000 0.000000
vt 0.500000 1.000000
vn -0.577350 0.577350 -0.577350
vn -0.577350 0.577350 -0.577350
vn -0.577350 0.577350 -0.577350
vn -0.577350 0.577350 0.577350
vn -0.577350 0.577350 0.577350
vn -0.577350 0.577350 0.577350
vn 0.577350 0.577350 0.577350
vn 0.577350 0.577350 0.577350
vn 0.577350 0.577350 0.577350
vn 0.577350 0.577350 -0.577350
vn 0.577350 0.577350 -0.577350
vn 0.577350 0.577350 -0.577350
vn 0.348114 0.870421 -0.348114
vn 0.348114 0.870421 -0.348114
vn 0.348114 0.870421 -0.348114
vn 0.348114 0.870421 -0.348114
vn -0.348114 0.870421 -0.348115
vn -0.348114 0.870421 -0.348115
vn -0.348114 0.870421 -0.348115
vn -0.348114 0.870421 -0.348115
vn -0.348114 0.870421 0.348114
vn -0.348114 0.870421 0.348114
vn -0.348114 0.870421 0.348114
vn -0.348114 0.870421 0.348114
vn 0.348114 0.870421 0.348114
vn 0.348114 0.870421 0.348114
vn 0.348114 0.870421 0.348114
vn 0.348114 0.870421 0.348114
vn -0.604430 -0.518969 -0.604430
vn -0.604430 -0.518969 -0.604430
vn -0.604430 -0.518969 -0.604430
vn -0.604430 -0.518969 0.604430
vn -0.604430 -0.518969 0.604430
vn -0.604430 -0.518969 0.604430
vn 0.604430 -0.518969 0.604430
vn 0.604430 -0.518969 0.604430
vn 0.604430 -0.518969 0.604430
vn 0.604430 -0.518969 -0.604430
vn 0.604430 -0.518969 -0.604430
vn 0.604430 -0.518969 -0.604430
vn -0.343389 -0.874167 0.343389
vn -0.343389 -0.874167 0.343389
vn -0.343389 -0.874167 0.343389
vn -0.343389 -0.874167 0.343389
vn -0.343389 -0.874167 -0.343389
vn -0.343389 -0.874167 -0.343389
vn -0.343389 -0.874167 -0.343389
vn -0.343389 -0.874167 -0.343389
vn 0.343389 -0.874167 -0.343389
vn 0.343389 -0.874167 -0.343389
vn 0.343389 -0.874167 -0.343389
vn 0.343389 -0.874167 -0.343389
vn 0.343389 -0.874167 0.343389
vn 0.343389 -0.874167 0.343389
vn 0.343389 -0.874167 0.343389
vn 0.343389 -0.874167 0.343389
s off
g pPyramid1
usemtl initialShadingGroup
f 10/10/1 13/13/2 9/9/3
f 11/11/4 13/13/5 10/10/6
f 12/12/7 13/13/8 11/11/9
f 9/9/10 13/13/11 12/12/12
f 4/4/13 1/1/14 5/5/15 8/7/16
f 1/1/17 2/2/18 6/6/19 5/5/20
f 2/2/21 3/3/22 7/8/23 6/6/24
f 3/3/25 4/4/26 8/7/27 7/8/28
f 2/14/29 1/15/30 14/16/31
f 3/17/32 2/18/33 14/19/34
f 4/20/35 3/21/36 14/22/37
f 1/23/38 4/24/39 14/25/40
f 6/6/41 7/8/42 11/11/43 10/10/44
f 5/5/45 6/6/46 10/10/47 9/9/48
f 8/7/49 5/5/50 9/9/51 12/12/52
f 7/8/53 8/7/54 12/12/55 11/11/56
