# This file uses centimeters as units for non-parametric coordinates.

mtllib MDL_CHAR_Object10.mtl
g default
v 0.032946 -0.301148 0.119417
v 0.032946 -0.301148 -0.119417
v -0.173890 -0.301148 -0.000000
v -0.036000 -0.496155 -0.000000
v -0.460981 -0.624951 0.798442
v 0.921961 -0.624951 -0.000000
v 0.695888 -0.464696 0.131172
v -0.234346 -0.464696 0.668243
v -0.000000 0.678899 -0.000000
v 0.075732 0.412337 0.131172
v -0.460981 -0.624951 -0.798442
v -0.229648 -0.461374 -0.664174
v 0.690016 -0.461374 -0.133206
v 0.076907 0.405693 -0.133206
v -0.461542 -0.464696 0.537071
v -0.461542 -0.464696 -0.537071
v -0.151464 0.412337 -0.000000
v 0.634251 -0.678899 -0.000000
v -0.317125 -0.678899 -0.549277
v -0.317125 -0.678899 0.549277
vt 0.375000 0.033494
vt 0.375000 0.466506
vt 0.750000 0.250000
vt 0.250000 0.500000
vt 0.416667 0.500000
vt 0.583333 0.500000
vt 0.750000 0.500000
vt 0.500000 1.000000
vt 0.500000 0.666667
vt 0.611111 0.666667
vt 0.388889 0.666667
vt 0.500000 0.250000
vt 0.583333 0.500000
vt 0.416667 0.500000
vt 0.500000 1.000000
vt 0.750000 0.500000
vt 0.583333 0.500000
vt 0.500000 1.000000
vt 0.416667 0.500000
vt 0.250000 0.500000
vt 0.500000 1.000000
vt 0.750000 0.250000
vt 0.375000 0.033494
vt 0.375000 0.466506
vn 0.346741 0.245183 0.905348
vn 0.610684 0.245183 0.752961
vn 0.610684 0.245183 0.752961
vn 0.346741 0.245183 0.905348
vn 0.434722 0.494031 0.752961
vn 0.434722 0.494031 0.752961
vn 0.607763 0.247248 -0.754647
vn 0.349662 0.247249 -0.903662
vn 0.349662 0.247249 -0.903662
vn 0.607763 0.247248 -0.754647
vn 0.435696 0.490588 -0.754647
vn 0.435696 0.490588 -0.754647
vn -0.957425 0.245183 -0.152387
vn -0.957425 0.245183 0.152387
vn -0.957425 0.245183 0.152387
vn -0.957425 0.245183 -0.152387
vn -0.869445 0.494031 -0.000000
vn -0.869445 0.494031 -0.000000
vn -0.092148 -0.982871 -0.159605
vn 0.184296 -0.982871 0.000000
vn 0.184296 -0.982871 0.000000
vn -0.092148 -0.982871 -0.159605
vn -0.092148 -0.982871 0.159605
vn -0.092148 -0.982871 0.159605
vn 0.215889 0.901980 0.373931
vn 0.215889 0.901980 0.373931
vn 0.215889 0.901980 0.373931
vn -0.021471 -0.015182 0.999654
vn -0.021471 -0.015182 0.999654
vn -0.021471 -0.015182 0.999654
vn 0.904417 -0.061193 0.422238
vn 0.904417 -0.061193 0.422238
vn 0.904417 -0.061193 0.422238
vn 0.212901 0.904817 -0.368755
vn 0.212901 0.904817 -0.368755
vn 0.212901 0.904817 -0.368755
vn 0.906219 -0.064512 -0.417858
vn 0.906219 -0.064512 -0.417858
vn 0.906219 -0.064512 -0.417858
vn -0.025346 -0.017922 -0.999518
vn -0.025346 -0.017922 -0.999518
vn -0.025346 -0.017922 -0.999518
vn -0.494260 0.869314 0.000000
vn -0.494260 0.869314 0.000000
vn -0.494260 0.869314 0.000000
vn -0.884683 0.027807 -0.465363
vn -0.884683 0.027807 -0.465363
vn -0.884683 0.027807 -0.465363
vn -0.884683 0.027807 0.465363
vn -0.884683 0.027807 0.465363
vn -0.884683 0.027807 0.465363
vn -0.239374 -0.877952 0.414608
vn -0.239374 -0.877952 0.414608
vn -0.239374 -0.877952 0.414608
vn -0.239374 -0.877952 -0.414608
vn -0.239374 -0.877952 -0.414608
vn -0.239374 -0.877952 -0.414608
vn 0.545014 -0.838427 0.000000
vn 0.545014 -0.838427 0.000000
vn 0.545014 -0.838427 0.000000
s 1
g pPyramid1
usemtl initialShadingGroup
f 5/5/1 6/6/2 7/13/3 8/14/4
f 6/6/2 9/8/5 10/15/6 7/13/3
f 9/8/5 5/5/1 8/14/4 10/15/6
s 2
f 6/6/7 11/7/8 12/16/9 13/17/10
f 11/7/8 9/8/11 14/18/12 12/16/9
f 9/8/11 6/6/7 13/17/10 14/18/12
s 3
f 11/4/13 5/5/14 15/19/15 16/20/16
f 5/5/14 9/8/17 17/21/18 15/19/15
f 9/8/17 11/4/13 16/20/16 17/21/18
s 4
f 11/1/19 6/3/20 18/22/21 19/23/22
f 6/3/20 5/2/23 20/24/24 18/22/21
f 5/2/23 11/1/19 19/23/22 20/24/24
s off
f 1/9/25 8/14/26 7/13/27
f 1/9/28 7/13/29 10/15/30
f 1/9/31 10/15/32 8/14/33
f 2/10/34 13/17/35 12/16/36
f 2/10/37 12/16/38 14/18/39
f 2/10/40 14/18/41 13/17/42
f 3/11/43 16/20/44 15/19/45
f 3/11/46 15/19/47 17/21/48
f 3/11/49 17/21/50 16/20/51
f 4/12/52 19/23/53 18/22/54
f 4/12/55 18/22/56 20/24/57
f 4/12/58 20/24/59 19/23/60
