# This file uses centimeters as units for non-parametric coordinates.

mtllib MDL_CHAR_Object6.mtl
g default
v -0.403046 -0.346655 0.279908
v 0.003681 -0.346655 0.710220
v 0.003681 -0.070377 0.279192
v 0.407179 -0.346655 0.279908
v 0.003681 -0.624288 0.280624
v 0.003681 -0.346655 -0.710220
v -0.403046 -0.346655 -0.280926
v 0.003681 -0.070377 -0.280235
v 0.407179 -0.346655 -0.280926
v 0.003681 -0.624288 -0.281617
v 0.090833 -0.346976 0.186096
v 0.002653 -0.264078 0.185620
v 0.090833 -0.346976 -0.187112
v 0.002653 -0.264078 -0.186652
v -0.088193 -0.346975 0.186096
v 0.002654 -0.431495 0.186572
v -0.088193 -0.346975 -0.187112
v 0.002654 -0.431494 -0.187571
vt 0.250000 0.500000
vt 0.500000 0.500000
vt 0.750000 0.500000
vt 1.000000 0.000000
vt 0.000000 0.000000
vt 1.000000 0.000000
vt 0.000000 0.000000
vt 0.500000 1.000000
vt 0.687500 0.250000
vt 0.312500 0.250000
vt 0.500000 1.000000
vt 0.187500 0.250000
vt 0.500000 1.000000
vt 0.812500 0.250000
vt 0.500000 1.000000
vt 0.500000 1.000000
vt 0.312500 0.250000
vt 0.812500 0.250000
vt 0.500000 1.000000
vt 0.500000 1.000000
vt 0.687500 0.250000
vt 0.187500 0.250000
vt 0.500000 1.000000
vn -0.495567 0.730731 -0.469516
vn -0.495567 0.730731 -0.469516
vn -0.495567 0.730731 -0.469516
vn -0.495811 0.731130 0.468636
vn -0.495811 0.731131 0.468636
vn -0.495811 0.731131 0.468636
vn 0.498795 0.729690 0.467713
vn 0.498795 0.729690 0.467713
vn 0.498795 0.729690 0.467713
vn 0.498550 0.729293 -0.468592
vn 0.498550 0.729293 -0.468592
vn 0.498550 0.729293 -0.468592
vn -0.497710 -0.727962 -0.471547
vn -0.497710 -0.727962 -0.471547
vn -0.497710 -0.727962 -0.471547
vn -0.497986 -0.728326 0.470692
vn -0.497986 -0.728326 0.470692
vn -0.497986 -0.728326 0.470692
vn 0.500974 -0.726879 0.469757
vn 0.500974 -0.726879 0.469757
vn 0.500974 -0.726879 0.469757
vn 0.500698 -0.726517 -0.470611
vn 0.500698 -0.726517 -0.470611
vn 0.500698 -0.726517 -0.470611
vn 0.684949 0.728591 -0.000000
vn 0.684949 0.728591 -0.000000
vn 0.684949 0.728591 -0.000000
vn 0.684949 0.728591 -0.000000
vn -0.681149 -0.732145 -0.000000
vn -0.681149 -0.732145 -0.000000
vn -0.681149 -0.732145 -0.000000
vn -0.681149 -0.732145 -0.000000
vn -0.674051 0.738685 -0.000000
vn -0.674051 0.738685 -0.000000
vn -0.674051 0.738685 -0.000000
vn -0.674051 0.738685 -0.000000
vn 0.691962 -0.721934 -0.000000
vn 0.691962 -0.721934 -0.000000
vn 0.691962 -0.721934 -0.000000
vn 0.691962 -0.721934 -0.000000
vn -0.283354 -0.392190 -0.875156
vn -0.283354 -0.392190 -0.875156
vn -0.283354 -0.392190 -0.875156
vn -0.283354 -0.392190 -0.875156
vn -0.282940 0.389054 -0.876688
vn -0.282940 0.389054 -0.876688
vn -0.282940 0.389054 -0.876688
vn -0.282940 0.389054 -0.876688
vn 0.283313 0.384914 -0.878393
vn 0.283313 0.384914 -0.878394
vn 0.283313 0.384914 -0.878393
vn 0.283313 0.384914 -0.878393
vn 0.283710 -0.388066 -0.876877
vn 0.283710 -0.388066 -0.876877
vn 0.283710 -0.388066 -0.876877
vn 0.283710 -0.388066 -0.876877
vn 0.283742 -0.388009 0.876892
vn 0.283742 -0.388009 0.876892
vn 0.283742 -0.388009 0.876892
vn 0.283742 -0.388009 0.876892
vn -0.283386 -0.392134 0.875171
vn -0.283386 -0.392134 0.875171
vn -0.283386 -0.392134 0.875171
vn -0.283386 -0.392134 0.875171
vn 0.283291 0.384985 0.878370
vn 0.283291 0.384985 0.878370
vn 0.283290 0.384985 0.878370
vn 0.283290 0.384985 0.878370
vn -0.282917 0.389124 0.876664
vn -0.282917 0.389124 0.876664
vn -0.282917 0.389124 0.876664
vn -0.282917 0.389124 0.876664
s off
g pPyramid2
usemtl initialShadingGroup
f 6/1/1 7/12/2 8/13/3
f 1/9/4 2/2/5 3/8/6
f 2/2/7 4/10/8 3/8/9
f 9/14/10 6/3/11 8/13/12
f 7/12/13 6/4/14 10/15/15
f 2/5/16 1/9/17 5/11/18
f 4/10/19 2/6/20 5/11/21
f 6/7/22 9/14/23 10/15/24
f 12/16/25 11/17/26 13/18/27 14/19/28
f 16/20/29 15/21/30 17/22/31 18/23/32
f 12/16/33 14/19/34 17/22/35 15/21/36
f 16/20/37 18/23/38 13/18/39 11/17/40
f 5/11/41 1/9/42 15/21/43 16/20/44
f 1/9/45 3/8/46 12/16/47 15/21/48
f 3/8/49 4/10/50 11/17/51 12/16/52
f 4/10/53 5/11/54 16/20/55 11/17/56
f 10/15/57 9/14/58 13/18/59 18/23/60
f 7/12/61 10/15/62 18/23/63 17/22/64
f 9/14/65 8/13/66 14/19/67 13/18/68
f 8/13/69 7/12/70 17/22/71 14/19/72
