# This file uses centimeters as units for non-parametric coordinates.

mtllib MDL_CHAR_Object8.mtl
g default
v -0.097823 -0.097823 0.097823
v 0.097823 -0.097823 0.097823
v -0.097823 0.097823 0.097823
v 0.097823 0.097823 0.097823
v -0.097823 0.097823 -0.097823
v 0.097823 0.097823 -0.097823
v -0.097823 -0.097823 -0.097823
v 0.097823 -0.097823 -0.097823
v -0.487061 0.000000 -0.488614
v 0.487061 0.000000 0.488614
v 0.476499 0.000000 -0.474985
v -0.476499 0.000000 0.474985
vt 0.375000 0.000000
vt 0.625000 0.000000
vt 0.375000 0.250000
vt 0.625000 0.250000
vt 0.250000 0.375000
vt 0.750000 0.375000
vt 0.250000 0.375000
vt 0.750000 0.375000
vt 0.312500 0.250000
vt 0.687500 0.250000
vt 0.750000 0.375000
vt 0.250000 0.375000
vt 0.250000 0.375000
vt 0.750000 0.375000
vt 0.625000 0.000000
vt 0.375000 0.000000
vt 0.500000 0.250000
vt 0.500000 0.375000
vt 0.500000 0.125000
vt 0.250000 0.375000
vt 0.750000 0.375000
vt 0.250000 0.375000
vt 0.250000 0.375000
vt 0.750000 0.375000
vt 0.250000 0.375000
vt 0.750000 0.375000
vt 0.500000 0.375000
vt 0.500000 0.375000
vt 0.750000 0.375000
vn -0.243740 0.969841 0.000000
vn -0.243740 0.969841 0.000000
vn -0.243740 0.969841 0.000000
vn -0.833176 0.000000 0.553007
vn -0.833176 0.000000 0.553007
vn -0.833176 0.000000 0.553007
vn -0.243740 -0.969841 0.000000
vn -0.243740 -0.969841 0.000000
vn -0.243740 -0.969841 0.000000
vn 0.708513 0.000000 -0.705698
vn 0.708513 0.000000 -0.705698
vn 0.708513 0.000000 -0.705698
vn 0.243740 0.969841 0.000000
vn 0.243740 0.969841 0.000000
vn 0.243740 0.969841 0.000000
vn 0.833176 0.000000 -0.553007
vn 0.833176 0.000000 -0.553007
vn 0.833176 0.000000 -0.553007
vn 0.243740 -0.969841 0.000000
vn 0.243740 -0.969841 0.000000
vn 0.243740 -0.969841 0.000000
vn -0.708513 0.000000 0.705698
vn -0.708513 0.000000 0.705698
vn -0.708513 0.000000 0.705698
vn 1.000000 0.000000 0.000000
vn 1.000000 0.000000 0.000000
vn 1.000000 0.000000 0.000000
vn 1.000000 0.000000 0.000000
vn -1.000000 0.000000 0.000000
vn -1.000000 0.000000 0.000000
vn -1.000000 0.000000 0.000000
vn -1.000000 0.000000 0.000000
vn 0.000000 0.000000 1.000000
vn 0.000000 0.000000 1.000000
vn 0.000000 0.000000 1.000000
vn 0.000000 0.000000 1.000000
vn 0.000000 0.967972 -0.251060
vn 0.000000 0.967972 -0.251060
vn 0.000000 0.967972 -0.251060
vn -0.548924 0.000000 -0.835872
vn -0.548924 0.000000 -0.835872
vn -0.548924 0.000000 -0.835872
vn 0.000000 -0.967972 -0.251060
vn 0.000000 -0.967972 -0.251060
vn 0.000000 -0.967972 -0.251060
vn 0.705689 0.000000 0.708522
vn 0.705689 0.000000 0.708522
vn 0.705689 0.000000 0.708522
vn 0.000000 0.000000 -1.000000
vn 0.000000 0.000000 -1.000000
vn 0.000000 0.000000 -1.000000
vn 0.000000 0.000000 -1.000000
vn 0.000000 -0.967972 0.251060
vn 0.000000 -0.967972 0.251060
vn 0.000000 -0.967972 0.251060
vn -0.705689 0.000000 -0.708522
vn -0.705689 0.000000 -0.708522
vn -0.705689 0.000000 -0.708522
vn 0.000000 0.967972 0.251060
vn 0.000000 0.967972 0.251060
vn 0.000000 0.967972 0.251060
vn 0.548924 0.000000 0.835872
vn 0.548924 0.000000 0.835872
vn 0.548924 0.000000 0.835872
s off
g pCube1
usemtl initialShadingGroup
f 3/3/1 5/5/2 9/9/3
f 1/1/4 3/3/5 9/9/6
f 7/7/7 1/1/8 9/9/9
f 9/9/10 5/5/11 7/7/12
f 6/6/13 4/4/14 10/10/15
f 8/8/16 6/6/17 10/10/18
f 2/2/19 8/8/20 10/10/21
f 10/10/22 4/4/23 2/2/24
f 5/5/25 3/3/26 1/1/27 7/7/28
f 4/4/29 6/6/30 8/8/31 2/2/32
f 6/11/33 5/12/34 7/13/35 8/14/36
f 5/16/37 6/15/38 11/17/39
f 7/20/40 5/21/41 11/18/42
f 8/22/43 7/23/44 11/18/45
f 11/18/46 6/24/47 8/25/48
f 2/26/49 1/27/50 3/28/51 4/29/52
f 1/1/53 2/2/54 12/19/55
f 3/3/56 1/1/57 12/19/58
f 4/4/59 3/3/60 12/19/61
f 12/19/62 2/2/63 4/4/64
