# This file uses centimeters as units for non-parametric coordinates.

mtllib MDL_CHAR_Object9.mtl
g default
v 0.281989 -0.398792 -0.281989
v 0.000000 0.000000 -1.000000
v -0.281989 -0.398792 -0.281989
v -1.000000 0.000000 0.000000
v -0.281989 -0.398792 0.281989
v 0.000000 0.000000 1.000000
v 0.281989 -0.398792 0.281989
v 1.000000 0.000000 0.000000
v 0.281989 0.398792 -0.281989
v -0.281989 0.398792 -0.281989
v -0.281989 0.398792 0.281989
v 0.281989 0.398792 0.281989
v 0.000000 -1.000000 0.000000
v 0.000000 1.000000 0.000000
vt 0.343750 0.156250
vt 0.389515 0.266735
vt 0.500000 0.312500
vt 0.610485 0.266735
vt 0.656250 0.156250
vt 0.375000 0.312500
vt 0.406250 0.500470
vt 0.437500 0.312500
vt 0.468750 0.500470
vt 0.500000 0.312500
vt 0.531250 0.500470
vt 0.562500 0.312500
vt 0.593750 0.500470
vt 0.625000 0.312500
vt 0.375000 0.688440
vt 0.437500 0.688440
vt 0.500000 0.688440
vt 0.562500 0.688440
vt 0.625000 0.688440
vt 0.610485 0.733265
vt 0.500000 0.687500
vt 0.389515 0.733265
vt 0.343750 0.843750
vt 0.389515 0.954235
vt 0.500000 1.000000
vt 0.610485 0.954235
vt 0.656250 0.843750
vt 0.500000 0.150000
vt 0.500000 0.837500
vn 0.930790 0.000000 -0.365555
vn 0.930790 0.000000 -0.365555
vn 0.930790 0.000000 -0.365555
vn -0.930790 0.000000 -0.365555
vn -0.930790 0.000000 -0.365555
vn -0.930790 0.000000 -0.365555
vn -0.365555 0.000000 -0.930790
vn -0.365555 0.000000 -0.930790
vn -0.365555 0.000000 -0.930790
vn -0.365555 0.000000 0.930790
vn -0.365555 0.000000 0.930790
vn -0.365555 0.000000 0.930790
vn -0.930790 0.000000 0.365555
vn -0.930790 0.000000 0.365555
vn -0.930790 0.000000 0.365555
vn 0.930790 0.000000 0.365555
vn 0.930790 0.000000 0.365555
vn 0.930790 0.000000 0.365555
vn 0.365555 0.000000 0.930790
vn 0.365555 0.000000 0.930790
vn 0.365555 0.000000 0.930790
vn 0.365555 0.000000 -0.930790
vn 0.365555 0.000000 -0.930790
vn 0.365555 0.000000 -0.930790
vn -0.589257 -0.552767 0.589257
vn -0.552033 -0.552033 0.624916
vn -0.589257 -0.552767 0.589257
vn -0.624916 -0.552033 0.552033
vn 0.552033 -0.552033 0.624916
vn 0.552033 -0.552033 0.624916
vn 0.552033 -0.552033 0.624916
vn 0.624916 0.552033 -0.552033
vn 0.624916 0.552033 -0.552033
vn 0.624916 0.552033 -0.552033
vn -0.552033 0.552033 0.624916
vn -0.589257 0.552767 0.589257
vn -0.589257 0.552767 0.589257
vn -0.624916 0.552033 0.552033
vn 0.552033 0.552033 0.624916
vn 0.552033 0.552033 0.624916
vn 0.552033 0.552033 0.624916
vn 0.552033 -0.552033 -0.624916
vn 0.552033 -0.552033 -0.624916
vn 0.552033 -0.552033 -0.624916
vn 0.624916 -0.552033 -0.552033
vn 0.624916 -0.552033 -0.552033
vn 0.624916 -0.552033 -0.552033
vn -0.624916 -0.552033 -0.552033
vn -0.624916 -0.552033 -0.552033
vn -0.624916 -0.552033 -0.552033
vn -0.552033 -0.552033 -0.624916
vn -0.552033 -0.552033 -0.624916
vn -0.552033 -0.552033 -0.624916
vn 0.624916 -0.552033 0.552033
vn 0.624916 -0.552033 0.552033
vn 0.624916 -0.552033 0.552033
vn -0.624916 0.552033 -0.552033
vn -0.624916 0.552033 -0.552033
vn -0.624916 0.552033 -0.552033
vn -0.552033 0.552033 -0.624916
vn -0.552033 0.552033 -0.624916
vn -0.552033 0.552033 -0.624916
vn 0.552033 0.552033 -0.624916
vn 0.552033 0.552033 -0.624916
vn 0.552033 0.552033 -0.624916
vn 0.624916 0.552033 0.552033
vn 0.624916 0.552033 0.552033
vn 0.624916 0.552033 0.552033
s off
g pCylinder1
usemtl initialShadingGroup
f 1/6/1 2/7/2 9/15/3
f 2/7/4 3/8/5 10/16/6
f 3/8/7 4/9/8 10/16/9
f 4/9/10 5/10/11 11/17/12
f 5/10/13 6/11/14 11/17/15
f 6/11/16 7/12/17 12/18/18
f 7/12/19 8/13/20 12/18/21
f 8/13/22 1/14/23 9/19/24
s 1
f 5/2/25 4/1/26 13/28/27
f 6/3/28 5/2/25 13/28/27
s off
f 8/5/29 7/4/30 13/28/31
f 9/26/32 2/25/33 14/29/34
s 2
f 4/23/35 11/22/36 14/29/37
f 11/22/36 6/21/38 14/29/37
s off
f 12/20/39 8/27/40 14/29/41
f 1/14/42 8/5/43 13/28/44
f 2/7/45 1/14/46 13/28/47
f 3/8/48 2/7/49 13/28/50
f 4/9/51 3/8/52 13/28/53
f 7/12/54 6/3/55 13/28/56
f 10/24/57 14/29/58 2/7/59
f 4/23/60 14/29/61 10/16/62
f 9/26/63 14/29/64 8/13/65
f 12/20/66 14/29/67 6/11/68
